<?xml version="1.0" encoding="UTF-8" standalone="no"?>
<svg
   xmlns:dc="http://purl.org/dc/elements/1.1/"
   xmlns:cc="http://creativecommons.org/ns#"
   xmlns:rdf="http://www.w3.org/1999/02/22-rdf-syntax-ns#"
   xmlns:svg="http://www.w3.org/2000/svg"
   xmlns="http://www.w3.org/2000/svg"
   xmlns:sodipodi="http://sodipodi.sourceforge.net/DTD/sodipodi-0.dtd"
   xmlns:inkscape="http://www.inkscape.org/namespaces/inkscape"
   version="1.1"
   id="svg2"
   xml:space="preserve"
   width="585.59998"
   height="285.22266"
   viewBox="0 0 585.59998 285.22266"
   sodipodi:docname="capital_grille.ai"><metadata
     id="metadata8"><rdf:RDF><cc:Work
         rdf:about=""><dc:format>image/svg+xml</dc:format><dc:type
           rdf:resource="http://purl.org/dc/dcmitype/StillImage" /></cc:Work></rdf:RDF></metadata><defs
     id="defs6"><clipPath
       clipPathUnits="userSpaceOnUse"
       id="clipPath18"><path
         d="M 0,213.917 H 439.2 V 0 H 0 Z"
         id="path16" /></clipPath></defs><sodipodi:namedview
     pagecolor="#ffffff"
     bordercolor="#666666"
     borderopacity="1"
     objecttolerance="10"
     gridtolerance="10"
     guidetolerance="10"
     inkscape:pageopacity="0"
     inkscape:pageshadow="2"
     inkscape:window-width="640"
     inkscape:window-height="480"
     id="namedview4" /><g
     id="g10"
     inkscape:groupmode="layer"
     inkscape:label="capital_grille"
     transform="matrix(1.3333333,0,0,-1.3333333,0,285.22267)"><g
       id="g12"><g
         id="g14"
         clip-path="url(#clipPath18)"><g
           id="g20"
           transform="translate(423.7562,58.984)"><path
             d="m 0,0 c -1.637,0.259 -407.138,0.191 -408.049,-0.05 -0.258,-1.175 -0.229,-45.552 0.036,-46.513 l 408.013,0 z m -0.081,88.406 c 0.256,1.584 0.194,49.366 -0.052,50.286 h -407.924 c -0.262,-1.447 -0.209,-49.336 0.051,-50.286 z M -408.141,3.905 c 1.396,-0.273 407.233,-0.219 408.125,0.04 0.241,2.309 0.131,79.737 -0.158,80.811 -135.662,0 -271.367,0 -407.072,-0.006 -0.279,0 -0.558,-0.089 -0.895,-0.147 z m -3.9,138.608 H 3.58 V -50.436 h -415.621 z"
             style="fill:#8c8532;fill-opacity:1;fill-rule:nonzero;stroke:none"
             id="path22" /></g><g
           id="g24"
           transform="translate(409.7871,128.1996)"><path
             d="m 0,0 c -3.527,0.002 -6.357,-2.843 -6.419,-6.366 -0.051,-2.932 2.2,-6.463 6.458,-6.445 3.754,0.016 6.319,2.932 6.354,6.42 C 6.428,-2.881 3.501,-0.002 0,0 m -199.009,-2.526 c 0.642,0 1.145,0.026 1.644,-0.004 2.063,-0.126 3.367,-1.174 3.809,-3.194 0.222,-1.016 0.343,-2.074 0.346,-3.113 0.026,-12.082 0.023,-24.165 0.021,-36.248 0,-0.586 -0.034,-1.175 -0.098,-1.758 -0.058,-0.54 -0.138,-1.083 -0.279,-1.606 -0.483,-1.799 -1.599,-2.729 -3.472,-2.952 -0.653,-0.078 -1.304,-0.173 -1.945,-0.259 v -1.565 h 20.515 v 1.582 c -0.708,0.085 -1.37,0.169 -2.033,0.245 -1.866,0.213 -3.043,1.124 -3.441,2.961 -0.29,1.34 -0.442,2.737 -0.447,4.109 -0.039,11.453 -0.036,22.907 -0.025,34.361 10e-4,1.129 0.081,2.266 0.225,3.386 0.353,2.753 1.728,3.969 4.499,4.075 0.405,0.016 0.809,0.05 1.194,0.074 v 1.642 h -20.513 z M -42.53,-53.097 h 40.752 c 0.376,4.31 0.756,8.669 1.144,13.118 -0.833,0.067 -1.521,0.122 -2.152,0.173 -0.485,-1.443 -0.852,-2.779 -1.377,-4.05 -1.295,-3.14 -3.572,-5.205 -6.909,-6.035 -3.882,-0.965 -7.811,-0.961 -11.732,-0.406 -2.679,0.379 -3.973,1.718 -4.423,4.268 -0.174,0.988 -0.276,2.001 -0.278,3.003 -0.019,11.455 -0.026,22.909 0.008,34.364 0.003,1.116 0.201,2.26 0.493,3.34 0.466,1.718 1.708,2.62 3.471,2.798 0.741,0.074 1.484,0.132 2.205,0.195 v 1.577 h -21.204 v -1.616 c 0.79,-0.055 1.537,-0.08 2.277,-0.163 1.69,-0.189 2.87,-1.031 3.429,-2.693 0.435,-1.294 0.516,-2.628 0.517,-3.969 0.012,-11.832 0.022,-23.664 10e-4,-35.496 -0.002,-1.166 -0.115,-2.353 -0.358,-3.492 -0.431,-2.02 -1.741,-3.053 -3.798,-3.222 -0.693,-0.057 -1.383,-0.157 -2.066,-0.236 z M -83.051,0.611 c -0.282,-0.671 -0.481,-1.131 -0.67,-1.595 -5.753,-14.109 -11.504,-28.218 -17.262,-42.324 -0.714,-1.751 -1.568,-3.429 -2.771,-4.907 -1.521,-1.869 -3.396,-3.084 -5.869,-3.223 -0.239,-0.013 -0.474,-0.11 -0.707,-0.168 v -1.544 h 17.697 v 1.674 c -0.457,0.029 -0.866,0.038 -1.271,0.084 -0.747,0.086 -1.51,0.122 -2.232,0.308 -1.566,0.403 -2.271,1.483 -2.044,3.111 0.109,0.782 0.295,1.565 0.549,2.313 0.752,2.219 1.552,4.422 2.341,6.629 0.477,1.333 0.969,2.661 1.451,3.985 h 16.796 c 1.55,-3.807 3.087,-7.562 4.602,-11.327 0.185,-0.46 0.308,-0.964 0.359,-1.457 0.203,-1.98 -0.58,-2.982 -2.56,-3.308 -0.774,-0.128 -1.556,-0.207 -2.34,-0.309 v -1.735 h 21.959 v 1.537 c -0.332,0.083 -0.613,0.192 -0.901,0.221 -2.564,0.255 -4.5,1.551 -5.837,3.688 -0.864,1.38 -1.66,2.821 -2.307,4.313 -5.215,12.02 -10.388,24.059 -15.572,36.092 -1.108,2.573 -2.211,5.148 -3.411,7.942 M -292.297,0.553 c -0.314,-0.736 -0.517,-1.195 -0.706,-1.658 -5.733,-14.073 -11.45,-28.153 -17.221,-42.21 -0.631,-1.538 -1.468,-3.018 -2.392,-4.402 -1.406,-2.108 -3.357,-3.488 -5.969,-3.75 -0.325,-0.032 -0.643,-0.131 -0.953,-0.197 v -1.601 h 17.653 v 1.726 c -0.628,0.05 -1.212,0.068 -1.787,0.15 -0.7,0.1 -1.417,0.182 -2.083,0.402 -1.109,0.366 -1.758,1.185 -1.674,2.375 0.064,0.908 0.215,1.835 0.496,2.698 0.726,2.228 1.54,4.426 2.329,6.633 0.505,1.413 1.026,2.821 1.529,4.202 h 16.802 c 1.382,-3.424 2.752,-6.797 4.102,-10.178 0.309,-0.775 0.629,-1.559 0.806,-2.37 0.416,-1.9 -0.39,-3.126 -2.267,-3.502 -0.847,-0.169 -1.714,-0.238 -2.627,-0.359 0,-0.324 -0.013,-0.614 0.003,-0.902 0.018,-0.315 0.062,-0.628 0.087,-0.865 h 21.925 v 1.577 c -0.335,0.069 -0.617,0.15 -0.905,0.183 -2.91,0.339 -4.932,1.97 -6.33,4.436 -0.763,1.346 -1.484,2.725 -2.097,4.144 -5.507,12.761 -10.986,25.535 -16.475,38.305 -0.706,1.641 -1.425,3.277 -2.246,5.163 m 131.412,-15.588 c 0.042,0.262 0.077,0.462 0.107,0.663 0.285,1.907 0.613,3.8 1.455,5.565 0.882,1.85 2.275,3.095 4.262,3.607 0.805,0.208 1.643,0.373 2.47,0.392 2.559,0.061 5.12,0.043 7.68,0.05 0.199,0.001 0.399,-0.038 0.668,-0.066 0.013,-0.298 0.033,-0.54 0.033,-0.781 0.001,-13.054 0.012,-26.108 -0.018,-39.162 -0.003,-1.205 -0.166,-2.433 -0.436,-3.609 -0.439,-1.909 -1.595,-2.82 -3.525,-3.026 -0.655,-0.07 -1.308,-0.161 -1.958,-0.242 v -1.544 h 20.963 v 1.572 c -0.615,0.078 -1.154,0.16 -1.695,0.213 -2.045,0.201 -3.279,1.192 -3.668,3.186 -0.239,1.225 -0.342,2.496 -0.344,3.746 -0.026,12.886 -0.019,25.772 -0.021,38.659 0,0.321 0,0.642 0,0.971 3.137,0 6.162,0.185 9.157,-0.044 4.234,-0.324 6.376,-2.406 7.25,-6.586 0.246,-1.178 0.396,-2.376 0.588,-3.545 h 2.44 c -0.108,4.805 -0.214,9.528 -0.32,14.262 h -46.885 c -0.253,-4.777 -0.503,-9.495 -0.756,-14.281 z m -168.474,-22.686 c -0.401,-0.343 -0.607,-0.466 -0.74,-0.644 -0.377,-0.504 -0.713,-1.036 -1.082,-1.545 -2.721,-3.744 -5.926,-6.97 -10.074,-9.122 -4.748,-2.463 -9.687,-3.106 -14.794,-1.214 -4.337,1.608 -7.55,4.597 -10.002,8.444 -2.452,3.847 -3.809,8.083 -4.339,12.599 -0.518,4.422 -0.339,8.795 1.041,13.058 1.738,5.371 4.881,9.629 10.073,12.105 4.965,2.368 10.129,2.445 15.293,0.793 6.279,-2.009 10.275,-6.238 11.795,-12.713 0.073,-0.313 0.149,-0.625 0.228,-0.956 h 1.605 c 0.022,0.27 0.06,0.514 0.059,0.757 -0.013,3.777 -0.058,7.555 -0.027,11.331 0.006,0.758 -0.33,1.018 -0.936,1.232 -7.13,2.52 -14.435,3.965 -22.034,3.623 -3.578,-0.161 -7.066,-0.807 -10.42,-2.063 -6.952,-2.603 -12.192,-7.12 -15.168,-14.004 -2.307,-5.336 -2.811,-10.925 -1.824,-16.636 1.25,-7.227 4.865,-12.951 11.044,-16.968 3.822,-2.485 8.057,-3.834 12.578,-4.312 4.535,-0.48 9.034,-0.311 13.49,0.724 5.306,1.231 9.962,3.822 14.411,6.851 0.06,0.041 0.085,0.135 0.165,0.269 -0.108,2.653 -0.219,5.37 -0.342,8.391 m 90.663,8.383 c 3.592,0.122 7.028,0.14 10.448,0.385 2.858,0.205 5.596,1.01 8.083,2.496 2.919,1.743 4.786,4.262 5.515,7.606 0.415,1.904 0.477,3.808 0.257,5.748 -0.585,5.148 -3.264,8.688 -8.053,10.616 -4.18,1.684 -8.568,1.754 -12.989,1.672 -4.277,-0.08 -8.557,-0.031 -12.836,-0.037 -1.667,-0.002 -3.334,0 -5.063,0 v -1.606 c 0.508,-0.023 0.96,-0.044 1.412,-0.064 2.346,-0.101 3.752,-1.266 4.201,-3.562 0.16,-0.818 0.263,-1.662 0.265,-2.495 0.025,-8.9 0.026,-17.799 0.028,-26.699 0.001,-3.527 0.019,-7.053 -0.042,-10.579 -0.016,-0.949 -0.217,-1.914 -0.465,-2.837 -0.441,-1.638 -1.623,-2.472 -3.267,-2.698 -0.697,-0.096 -1.396,-0.183 -2.082,-0.272 v -1.58 h 20.686 v 1.573 c -0.748,0.092 -1.448,0.175 -2.147,0.266 -1.996,0.259 -3.155,1.22 -3.578,3.155 -0.231,1.057 -0.344,2.158 -0.352,3.241 -0.037,4.995 -0.019,9.991 -0.021,14.987 0,0.245 0,0.491 0,0.684 m -155.475,-35.973 v 80.699 c 0.336,0.057 0.615,0.146 0.894,0.146 135.705,0.006 271.41,0.006 407.072,0.006 0.289,-1.074 0.399,-78.501 0.158,-80.811 -0.891,-0.259 -406.729,-0.313 -408.124,-0.04"
             style="fill:#020201;fill-opacity:1;fill-rule:nonzero;stroke:none"
             id="path26" /></g><g
           id="g28"
           transform="translate(134.9059,156.6955)"><path
             d="M 0,0 H 11.273 C 11.254,0.282 11.24,0.485 11.226,0.691 10.862,0.772 10.537,0.847 10.211,0.918 8.955,1.192 8.482,1.652 8.284,2.887 8.184,3.506 8.115,4.138 8.114,4.764 8.096,11.559 8.093,18.355 8.093,25.151 c 0,0.316 0.063,0.632 0.109,1.074 1.855,-0.097 3.613,-0.135 5.359,-0.297 1.855,-0.172 2.922,-1.311 3.348,-3.08 0.175,-0.728 0.308,-1.465 0.479,-2.285 0.414,0.021 0.801,0.041 1.25,0.064 -0.067,2.575 -0.13,5.039 -0.195,7.54 H -6.811 c -0.135,-2.555 -0.266,-5.043 -0.402,-7.627 0.533,0.031 0.932,0.053 1.249,0.072 0.27,1.046 0.458,1.991 0.762,2.896 0.379,1.131 1.148,1.966 2.314,2.303 1.959,0.565 3.956,0.257 5.957,0.327 C 3.1,25.752 3.131,25.546 3.131,25.339 3.134,18.417 3.137,11.496 3.127,4.574 3.127,3.989 3.084,3.397 2.986,2.82 2.809,1.774 2.256,1.06 1.122,0.922 0.755,0.877 0.395,0.772 0,0.689 Z m 151.046,0.034 h 21.04 c 0.183,2.301 0.369,4.626 0.565,7.093 -0.366,0.055 -0.743,0.111 -1.13,0.169 -0.158,-0.571 -0.279,-1.014 -0.401,-1.456 -0.592,-2.129 -1.961,-3.444 -4.111,-3.972 -1.939,-0.475 -3.908,-0.497 -5.872,-0.322 -1.368,0.123 -1.99,0.837 -2.168,2.197 -0.038,0.29 -0.031,0.586 -0.032,0.88 -0.004,2.727 -0.009,5.454 -0.004,8.182 0,0.275 0.065,0.55 0.089,0.741 1.723,0 3.36,0.076 4.987,-0.022 1.554,-0.094 2.277,-0.911 2.492,-2.492 0.054,-0.4 0.113,-0.8 0.176,-1.248 0.45,0.025 0.81,0.044 1.166,0.063 v 9.268 h -1.23 c -0.056,-0.599 -0.084,-1.137 -0.159,-1.67 -0.157,-1.126 -0.812,-1.864 -1.922,-2.038 -1.819,-0.284 -3.656,-0.341 -5.517,-0.187 v 11.709 c 2.139,-0.107 4.196,-0.112 6.229,-0.337 2.201,-0.245 3.674,-1.501 4.257,-3.698 0.106,-0.399 0.219,-0.798 0.351,-1.281 0.392,0.019 0.781,0.038 1.174,0.058 -0.238,2.266 -0.463,4.41 -0.686,6.541 h -19.233 c -0.042,-0.155 -0.097,-0.271 -0.1,-0.389 -0.003,-0.116 0.046,-0.233 0.082,-0.393 0.259,-0.022 0.505,-0.033 0.748,-0.068 1.438,-0.204 2.082,-0.827 2.277,-2.248 0.068,-0.497 0.086,-1.004 0.086,-1.506 0.006,-6.378 0.006,-12.755 0.001,-19.133 -0.001,-0.46 -0.022,-0.925 -0.083,-1.38 -0.181,-1.349 -0.698,-1.895 -2.024,-2.193 -0.35,-0.078 -0.7,-0.156 -1.048,-0.233 z M 77.16,14.187 c 3.659,0.228 13.878,0.121 14.855,-0.163 0.018,-0.148 0.056,-0.311 0.057,-0.474 C 92.076,10.528 92.084,7.506 92.069,4.484 92.065,3.899 92.01,3.306 91.897,2.732 91.701,1.74 91.147,1.071 90.07,0.945 89.698,0.902 89.332,0.805 88.939,0.728 V 0.024 h 11.184 c -0.267,0.371 -0.373,0.633 -0.567,0.756 -0.198,0.126 -0.483,0.117 -0.73,0.165 -1.186,0.231 -1.665,0.673 -1.882,1.862 -0.12,0.656 -0.194,1.331 -0.196,1.997 -0.016,6.171 -0.013,12.341 -0.011,18.511 0,0.419 0,0.842 0.053,1.256 0.274,2.136 0.796,2.627 2.948,2.825 0.074,0.007 0.142,0.076 0.245,0.134 -0.019,0.218 -0.039,0.445 -0.057,0.65 -1.57,0 -3.036,-0.007 -4.502,0.002 -1.93,0.012 -3.861,0.029 -5.791,0.062 -0.605,0.01 -0.897,-0.161 -0.598,-0.823 0.243,-0.026 0.495,-0.038 0.74,-0.084 1.449,-0.272 1.999,-0.859 2.188,-2.336 0.047,-0.375 0.093,-0.753 0.095,-1.129 0.011,-2.56 0.013,-5.121 0.007,-7.681 0,-0.153 -0.091,-0.307 -0.143,-0.469 H 77.051 c -0.027,0.277 -0.065,0.482 -0.065,0.687 -0.001,2.518 -0.028,5.037 0.015,7.555 0.051,2.961 0.887,3.202 3.097,3.511 v 0.703 H 69.11 v -0.729 c 0.262,-0.032 0.505,-0.056 0.746,-0.093 1.46,-0.225 1.965,-0.675 2.256,-2.108 0.108,-0.529 0.144,-1.08 0.145,-1.621 0.01,-6.38 0.007,-12.76 0.005,-19.14 0,-0.377 0.012,-0.759 -0.034,-1.132 C 72.023,1.725 71.536,1.214 69.906,0.874 69.782,0.849 69.659,0.823 69.534,0.806 68.959,0.726 69.069,0.373 69.142,-0.011 H 80.12 v 0.717 c -0.305,0.067 -0.585,0.136 -0.867,0.189 -1.51,0.286 -2.131,0.798 -2.166,2.294 -0.086,3.604 -0.042,7.211 -0.047,10.817 0,0.035 0.044,0.07 0.12,0.181 M 288.77,-9.306 h -407.926 c -0.26,0.95 -0.313,48.84 -0.051,50.286 h 407.925 c 0.245,-0.919 0.307,-48.701 0.052,-50.286"
             style="fill:#000101;fill-opacity:1;fill-rule:nonzero;stroke:none"
             id="path30" /></g><g
           id="g32"
           transform="translate(78.4086,36.8033)"><path
             d="m 0,0 c 0.009,-2.246 1.648,-3.861 3.898,-3.842 2.166,0.019 3.728,1.65 3.789,3.838 C 7.749,2.207 6.014,3.932 3.839,3.929 1.609,3.927 -0.123,2.153 0,0 m 139.806,-0.023 c 0.015,-2.24 1.664,-3.846 3.923,-3.818 2.111,0.025 3.839,1.771 3.819,3.857 -0.022,2.161 -1.802,3.975 -3.92,3.928 -2.03,-0.046 -3.973,-1.683 -3.822,-3.967 M 283.46,-3.842 c 2.132,0.004 3.858,1.683 3.894,3.786 0.037,2.203 -1.804,4.09 -3.972,3.998 -2.206,-0.093 -3.848,-1.883 -3.788,-3.892 0.066,-2.261 1.624,-3.895 3.866,-3.892 m -69.885,0 c 2.159,0.011 3.845,1.671 3.866,3.805 0.02,2.167 -1.714,3.957 -3.864,3.987 -2.122,0.029 -3.939,-1.782 -3.932,-3.92 0.006,-2.205 1.708,-3.882 3.93,-3.872 m -139.873,0 c 2.221,-0.013 3.943,1.676 3.937,3.863 -0.007,2.156 -1.8,3.951 -3.926,3.929 -2.14,-0.022 -3.892,-1.822 -3.875,-3.98 0.018,-2.131 1.709,-3.8 3.864,-3.812 m 30.13,15.202 c 2.752,-0.107 2.82,-1.313 3.005,-3.1 0.008,-0.083 0.002,-0.167 0.002,-0.251 0,-6.127 0.01,-12.254 -0.004,-18.381 -0.005,-2.429 -0.524,-3.005 -2.969,-3.384 0.012,-0.213 0.025,-0.433 0.038,-0.661 h 10.343 c -0.028,0.281 -0.05,0.504 -0.072,0.735 -0.232,0.019 -0.398,0.029 -0.564,0.048 -1.509,0.171 -2.089,0.712 -2.262,2.193 -0.083,0.707 -0.112,1.423 -0.113,2.135 -0.009,5.245 -0.006,10.491 -0.004,15.736 0,0.63 -0.015,1.261 0.031,1.887 0.175,2.363 0.592,2.793 2.981,3.075 -0.01,0.224 -0.02,0.454 -0.032,0.702 h -5.205 -5.142 c -0.011,-0.254 -0.02,-0.46 -0.033,-0.734 m 82.694,-19.063 c -0.239,-0.718 -0.406,-1.326 -0.642,-1.906 -0.559,-1.374 -1.45,-2.481 -2.885,-2.975 -2.314,-0.796 -4.691,-0.753 -7.067,-0.319 -1.076,0.197 -1.664,0.926 -1.823,1.979 -0.112,0.744 -0.205,1.499 -0.208,2.25 -0.017,5.412 -0.014,10.825 -0.002,16.237 0.002,0.583 0.061,1.173 0.164,1.748 0.252,1.407 0.841,1.894 2.299,1.986 0.244,0.015 0.486,0.056 0.755,0.088 -0.022,0.287 -0.04,0.521 -0.058,0.761 h -10.672 c -0.027,-0.184 -0.072,-0.342 -0.066,-0.497 0.004,-0.107 0.08,-0.211 0.126,-0.321 0.198,-0.011 0.365,-0.039 0.529,-0.027 1.409,0.101 2.322,-0.814 2.42,-2.154 0.043,-0.584 0.135,-1.168 0.136,-1.752 0.01,-5.748 0.007,-11.496 0.004,-17.245 0,-0.335 -0.004,-0.672 -0.042,-1.004 -0.249,-2.167 -0.733,-2.628 -2.917,-2.815 -0.069,-0.006 -0.132,-0.081 -0.338,-0.215 0.131,-0.185 0.231,-0.477 0.414,-0.547 0.258,-0.097 0.578,-0.031 0.872,-0.031 6.209,0 12.418,10e-4 18.627,0.002 0.243,0 0.486,0 0.834,0 0.195,2.24 0.382,4.394 0.574,6.592 -0.384,0.061 -0.663,0.106 -1.034,0.165 m 51.576,-6.682 h 20.607 c 0.196,2.205 0.386,4.331 0.581,6.516 -0.361,0.068 -0.676,0.128 -1.046,0.198 -0.172,-0.52 -0.328,-0.991 -0.484,-1.462 -0.708,-2.14 -2.115,-3.526 -4.393,-3.769 -1.616,-0.172 -3.261,-0.257 -4.88,-0.16 -1.888,0.113 -2.641,1.01 -2.804,2.908 -0.029,0.334 -0.026,0.671 -0.026,1.007 -0.003,2.014 -0.004,4.027 -0.003,6.041 0.001,3.818 -0.017,7.636 0.015,11.454 0.018,2.176 0.654,2.805 2.812,2.976 0.114,0.009 0.221,0.094 0.359,0.157 -0.026,0.243 -0.052,0.474 -0.076,0.693 h -10.685 c 0.031,-0.31 0.058,-0.578 0.085,-0.844 0.252,-0.012 0.419,-0.018 0.585,-0.028 1.541,-0.089 2.185,-0.676 2.37,-2.201 0.055,-0.456 0.067,-0.92 0.068,-1.381 0.004,-5.915 0.003,-11.831 0.002,-17.747 0,-0.335 0,-0.672 -0.025,-1.006 -0.138,-1.804 -0.767,-2.433 -2.572,-2.593 -0.161,-0.015 -0.32,-0.05 -0.49,-0.078 z m 90.97,6.836 c -0.205,-0.692 -0.351,-1.261 -0.541,-1.815 -0.555,-1.624 -1.668,-2.725 -3.315,-3.161 -2.038,-0.54 -4.119,-0.743 -6.223,-0.364 -0.87,0.157 -1.462,0.622 -1.627,1.514 -0.09,0.49 -0.153,0.994 -0.156,1.492 -0.016,2.434 -0.011,4.869 -0.005,7.303 0.001,0.32 0.044,0.64 0.072,1.021 0.743,0 1.411,0.023 2.075,-0.005 1.002,-0.042 2.008,-0.07 3.001,-0.196 1.139,-0.144 1.766,-0.864 1.935,-1.996 0.067,-0.447 0.163,-0.89 0.257,-1.399 0.41,0.038 0.765,0.072 1.046,0.099 v 8.73 h -1.083 C 324.438,3.179 324.379,2.725 324.311,2.272 324.09,0.817 323.509,0.13 322.06,0.026 320.485,-0.087 318.896,0 317.258,0 v 10.783 c 1.539,0 3.037,0.016 4.535,-0.009 0.498,-0.009 0.995,-0.121 1.491,-0.188 2.185,-0.294 3.408,-1.619 3.95,-3.678 0.083,-0.314 0.181,-0.623 0.282,-0.969 0.392,0.024 0.712,0.044 1.065,0.066 -0.217,2.102 -0.427,4.132 -0.638,6.175 h -18.192 c 0.038,-0.305 0.071,-0.566 0.101,-0.808 2.287,-0.207 2.788,-0.745 2.883,-3.009 0.005,-0.126 0.009,-0.252 0.01,-0.378 10e-4,-6.086 0.014,-12.172 -0.004,-18.259 -0.008,-2.574 -0.45,-3.061 -2.964,-3.481 v -0.634 h 19.807 c 0.179,2.232 0.356,4.435 0.538,6.702 -0.343,0.045 -0.66,0.087 -1.05,0.138 m -356.943,-4.615 c -1.665,-0.975 -3.03,-1.425 -4.521,-1.46 -3.964,-0.095 -7.104,1.56 -9.321,4.763 -2.895,4.18 -3.52,8.812 -2.087,13.673 0.938,3.181 3.106,5.212 6.307,6.068 2.608,0.697 5.244,0.64 7.811,-0.177 2.625,-0.835 4.322,-2.632 4.992,-5.341 0.067,-0.272 0.115,-0.549 0.167,-0.798 h 0.855 v 6.379 c -0.419,0.134 -0.767,0.284 -1.129,0.356 -1.884,0.375 -3.761,0.807 -5.66,1.075 -3.183,0.449 -6.354,0.322 -9.459,-0.591 -6.021,-1.77 -9.742,-6.59 -9.873,-12.766 -0.131,-6.126 3.383,-11.174 9.224,-13.102 3.804,-1.255 7.681,-1.155 11.532,-0.212 1.848,0.453 3.651,1.088 5.463,1.637 0,0.428 -0.001,0.678 0,0.928 0,1.637 -0.071,3.278 0.02,4.91 0.112,1.986 0.342,2.558 2.368,2.923 0.157,0.029 0.308,0.085 0.523,0.146 -0.029,0.272 -0.054,0.503 -0.08,0.75 h -9.854 v -0.781 c 0.365,-0.093 0.689,-0.175 1.012,-0.259 1.192,-0.311 1.651,-0.751 1.692,-1.999 0.067,-2.049 0.018,-4.101 0.018,-6.122 m 71.939,10.995 c 0.117,0.046 0.335,0.138 0.557,0.22 2.663,0.993 4.844,2.987 4.58,6.969 -0.153,2.311 -1.181,4.078 -3.207,5.214 -1.261,0.708 -2.651,1.061 -4.09,1.05 -4.232,-0.032 -8.465,-0.119 -12.698,-0.187 -0.038,0 -0.077,-0.031 -0.163,-0.069 -0.01,-0.206 -0.021,-0.435 -0.034,-0.702 0.253,-0.018 0.416,-0.024 0.577,-0.043 1.496,-0.171 2.048,-0.694 2.268,-2.199 0.079,-0.537 0.129,-1.084 0.131,-1.626 0.014,-5.664 0.019,-11.327 0.016,-16.991 -0.001,-0.585 -0.04,-1.174 -0.121,-1.754 -0.245,-1.753 -0.741,-2.206 -2.502,-2.365 -0.118,-0.011 -0.233,-0.059 -0.405,-0.104 0.032,-0.243 0.062,-0.468 0.087,-0.66 h 10.914 c -0.038,0.36 -0.067,0.632 -0.094,0.886 -2.917,0.442 -3.312,0.898 -3.365,3.822 -0.002,0.126 -10e-4,0.252 -10e-4,0.378 0,2.097 -0.003,4.195 0.003,6.293 10e-4,0.32 0.047,0.64 0.069,0.924 1.88,0.33 3.064,-0.449 3.815,-2.041 0.393,-0.832 0.816,-1.65 1.254,-2.459 0.837,-1.546 1.655,-3.104 2.554,-4.613 1.01,-1.695 2.525,-2.737 4.441,-3.248 1.536,-0.409 3.072,-0.316 4.618,-0.173 0.116,0.01 0.227,0.082 0.403,0.149 -0.038,0.27 -0.074,0.533 -0.114,0.826 -1.782,-0.093 -2.924,0.82 -3.792,2.158 -0.478,0.736 -0.913,1.503 -1.333,2.274 -1.456,2.671 -2.897,5.35 -4.368,8.071 m 301.28,23.35 V -24.383 H -62.665 c -0.265,0.962 -0.295,45.338 -0.036,46.514 0.911,0.24 406.412,0.309 408.049,0.05"
             style="fill:#020201;fill-opacity:1;fill-rule:nonzero;stroke:none"
             id="path34" /></g><g
           id="g36"
           transform="translate(171.1613,125.0164)"><path
             d="m 0,0 v -22.96 c 1.9,-0.517 4.603,-0.785 6.558,-0.523 3.805,0.509 6.529,2.448 7.823,6.165 0.792,2.276 0.842,4.609 0.458,6.957 -0.637,3.9 -2.474,7.021 -6.063,8.891 C 6.063,-0.056 3.145,0.315 0,0 m -0.07,-26.154 c 0,-0.194 0,-0.439 0,-0.685 0.002,-4.996 -0.016,-9.991 0.021,-14.987 0.008,-1.082 0.121,-2.184 0.352,-3.241 0.423,-1.935 1.582,-2.896 3.578,-3.155 0.699,-0.091 1.399,-0.174 2.147,-0.266 v -1.573 h -20.686 v 1.58 c 0.686,0.089 1.385,0.176 2.082,0.272 1.644,0.226 2.826,1.06 3.266,2.699 0.249,0.922 0.45,1.887 0.466,2.836 0.061,3.526 0.043,7.053 0.042,10.579 -0.002,8.9 -0.004,17.8 -0.028,26.699 -0.002,0.833 -0.105,1.677 -0.265,2.496 -0.45,2.295 -1.855,3.461 -4.201,3.562 -0.453,0.019 -0.905,0.04 -1.412,0.063 v 1.606 c 1.729,0 3.396,-0.002 5.063,0 C -5.366,2.337 -1.086,2.288 3.191,2.368 7.612,2.451 12,2.38 16.179,0.697 c 4.789,-1.929 7.469,-5.468 8.054,-10.617 0.22,-1.94 0.158,-3.844 -0.258,-5.748 -0.729,-3.344 -2.595,-5.863 -5.514,-7.606 -2.487,-1.485 -5.226,-2.291 -8.083,-2.496 -3.42,-0.245 -6.856,-0.263 -10.448,-0.384"
             style="fill:#faf9f9;fill-opacity:1;fill-rule:nonzero;stroke:none"
             id="path38" /></g><g
           id="g40"
           transform="translate(80.4284,90.4789)"><path
             d="M 0,0 C 0.123,-3.022 0.234,-5.738 0.342,-8.392 0.262,-8.525 0.237,-8.619 0.176,-8.66 c -4.448,-3.029 -9.104,-5.62 -14.41,-6.852 -4.456,-1.034 -8.955,-1.203 -13.49,-0.724 -4.521,0.479 -8.756,1.828 -12.578,4.313 -6.179,4.016 -9.794,9.74 -11.044,16.967 -0.987,5.712 -0.483,11.3 1.824,16.636 2.976,6.884 8.215,11.402 15.168,14.005 3.354,1.256 6.842,1.901 10.419,2.062 7.6,0.342 14.904,-1.102 22.034,-3.622 0.607,-0.215 0.943,-0.475 0.937,-1.232 -0.031,-3.777 0.013,-7.554 0.027,-11.331 0,-0.243 -0.037,-0.487 -0.059,-0.757 h -1.605 c -0.079,0.331 -0.155,0.643 -0.229,0.955 -1.519,6.476 -5.516,10.705 -11.794,12.713 -5.165,1.652 -10.328,1.576 -15.294,-0.792 -5.191,-2.477 -8.334,-6.734 -10.072,-12.105 -1.38,-4.263 -1.559,-8.636 -1.041,-13.058 0.529,-4.516 1.887,-8.752 4.339,-12.599 2.452,-3.847 5.664,-6.836 10.002,-8.444 5.107,-1.892 10.045,-1.249 14.794,1.214 4.148,2.152 7.353,5.377 10.073,9.122 0.37,0.508 0.706,1.041 1.082,1.544 C -0.607,-0.467 -0.401,-0.344 0,0"
             style="fill:#faf9f9;fill-opacity:1;fill-rule:nonzero;stroke:none"
             id="path42" /></g><g
           id="g44"
           transform="translate(248.9018,113.1642)"><path
             d="m 0,0 h -2.552 c 0.253,4.787 0.502,9.505 0.755,14.281 H 45.089 C 45.195,9.547 45.3,4.825 45.408,0.019 h -2.44 c -0.191,1.17 -0.342,2.368 -0.588,3.545 -0.874,4.18 -3.015,6.263 -7.25,6.586 -2.994,0.229 -6.02,0.045 -9.157,0.045 0,-0.329 0,-0.651 0,-0.972 0.002,-12.886 -0.005,-25.772 0.021,-38.658 0.003,-1.251 0.105,-2.521 0.344,-3.747 0.39,-1.994 1.623,-2.984 3.669,-3.186 0.541,-0.053 1.079,-0.135 1.695,-0.213 v -1.571 H 10.738 v 1.544 c 0.651,0.081 1.303,0.172 1.958,0.242 1.93,0.205 3.087,1.117 3.525,3.026 0.271,1.175 0.434,2.403 0.436,3.608 0.031,13.054 0.02,26.108 0.018,39.162 0,0.242 -0.02,0.484 -0.033,0.782 -0.269,0.027 -0.468,0.066 -0.667,0.066 -2.561,-0.008 -5.122,0.01 -7.681,-0.05 C 7.467,10.208 6.629,10.043 5.825,9.836 3.837,9.324 2.444,8.079 1.562,6.229 0.72,4.463 0.393,2.571 0.108,0.663 0.078,0.462 0.043,0.262 0,0"
             style="fill:#fafbfb;fill-opacity:1;fill-rule:nonzero;stroke:none"
             id="path46" /></g><g
           id="g48"
           transform="translate(114.2735,114.5888)"><path
             d="M 0,0 C -2.305,-6.515 -4.513,-12.756 -6.754,-19.093 H 7.938 C 5.301,-12.75 2.711,-6.521 0,0 m 3.217,14.164 c 0.82,-1.886 1.54,-3.522 2.245,-5.163 5.49,-12.77 10.968,-25.544 16.476,-38.305 0.612,-1.419 1.334,-2.798 2.097,-4.144 1.398,-2.467 3.419,-4.097 6.33,-4.436 0.287,-0.033 0.569,-0.114 0.904,-0.183 v -1.577 H 9.345 c -0.025,0.237 -0.069,0.55 -0.087,0.865 -0.016,0.288 -0.003,0.578 -0.003,0.902 0.912,0.121 1.78,0.19 2.626,0.359 1.877,0.376 2.684,1.601 2.268,3.502 -0.177,0.81 -0.497,1.595 -0.806,2.37 -1.351,3.381 -2.721,6.754 -4.103,10.178 H -7.561 c -0.504,-1.382 -1.025,-2.789 -1.53,-4.202 -0.788,-2.207 -1.603,-4.405 -2.328,-6.633 -0.282,-0.863 -0.432,-1.79 -0.496,-2.698 -0.084,-1.191 0.565,-2.009 1.674,-2.375 0.666,-0.221 1.382,-0.302 2.082,-0.402 0.575,-0.082 1.159,-0.1 1.788,-0.15 v -1.726 h -17.653 v 1.601 c 0.309,0.065 0.627,0.164 0.952,0.197 2.613,0.262 4.563,1.642 5.969,3.749 0.925,1.385 1.761,2.865 2.393,4.402 5.77,14.058 11.487,28.138 17.221,42.211 0.189,0.463 0.392,0.921 0.706,1.658"
             style="fill:#faf9f9;fill-opacity:1;fill-rule:nonzero;stroke:none"
             id="path50" /></g><g
           id="g52"
           transform="translate(323.6522,114.2934)"><path
             d="m 0,0 c -0.086,0.005 -0.171,0.009 -0.257,0.014 -2.212,-6.255 -4.424,-12.51 -6.656,-18.822 H 7.821 C 5.187,-12.476 2.594,-6.238 0,0 m 3.084,14.517 c 1.2,-2.794 2.303,-5.369 3.411,-7.941 5.184,-12.034 10.357,-24.073 15.572,-36.093 0.647,-1.491 1.443,-2.933 2.307,-4.313 1.337,-2.137 3.272,-3.432 5.836,-3.688 0.289,-0.029 0.57,-0.137 0.902,-0.221 v -1.537 H 9.153 v 1.735 c 0.784,0.102 1.566,0.181 2.34,0.309 1.98,0.326 2.763,1.328 2.56,3.308 -0.051,0.494 -0.174,0.997 -0.359,1.458 -1.515,3.764 -3.052,7.519 -4.602,11.326 H -7.704 c -0.482,-1.324 -0.974,-2.652 -1.451,-3.985 -0.789,-2.207 -1.589,-4.41 -2.341,-6.629 -0.254,-0.747 -0.44,-1.531 -0.549,-2.313 -0.227,-1.627 0.478,-2.708 2.044,-3.111 0.722,-0.186 1.485,-0.222 2.232,-0.308 0.405,-0.046 0.814,-0.055 1.271,-0.084 v -1.673 h -17.697 v 1.544 c 0.233,0.057 0.468,0.154 0.707,0.168 2.473,0.138 4.348,1.353 5.869,3.222 1.203,1.478 2.057,3.156 2.771,4.907 5.758,14.106 11.508,28.216 17.262,42.324 0.189,0.464 0.388,0.924 0.67,1.595"
             style="fill:#faf9f9;fill-opacity:1;fill-rule:nonzero;stroke:none"
             id="path54" /></g><g
           id="g56"
           transform="translate(367.2568,75.1026)"><path
             d="m 0,0 v 1.458 c 0.684,0.079 1.373,0.179 2.066,0.236 2.057,0.169 3.367,1.202 3.799,3.222 0.243,1.139 0.355,2.326 0.357,3.492 0.022,11.832 0.012,23.664 0,35.497 -0.002,1.34 -0.083,2.674 -0.518,3.968 -0.559,1.662 -1.738,2.504 -3.429,2.693 -0.74,0.083 -1.487,0.108 -2.276,0.163 v 1.616 h 21.204 v -1.577 c -0.721,-0.063 -1.464,-0.121 -2.205,-0.195 -1.764,-0.178 -3.006,-1.079 -3.471,-2.798 -0.293,-1.08 -0.49,-2.224 -0.494,-3.34 -0.034,-11.455 -0.027,-22.909 -0.007,-34.364 10e-4,-1.002 0.103,-2.015 0.277,-3.003 0.45,-2.55 1.744,-3.889 4.424,-4.268 3.92,-0.555 7.849,-0.559 11.731,0.406 3.337,0.83 5.614,2.895 6.91,6.035 0.524,1.271 0.891,2.607 1.376,4.05 0.632,-0.051 1.32,-0.106 2.152,-0.173 C 41.508,8.669 41.128,4.31 40.752,0 Z"
             style="fill:#fafbfb;fill-opacity:1;fill-rule:nonzero;stroke:none"
             id="path58" /></g><g
           id="g60"
           transform="translate(210.778,125.6739)"><path
             d="M 0,0 V 1.736 H 20.513 V 0.093 C 20.128,0.069 19.724,0.036 19.319,0.02 16.548,-0.087 15.173,-1.303 14.82,-4.055 c -0.144,-1.121 -0.224,-2.257 -0.225,-3.387 -0.011,-11.453 -0.014,-22.907 0.025,-34.36 0.005,-1.373 0.157,-2.769 0.447,-4.11 0.398,-1.836 1.575,-2.747 3.441,-2.961 0.663,-0.076 1.325,-0.159 2.033,-0.244 v -1.582 H 0.026 v 1.564 c 0.641,0.086 1.292,0.182 1.945,0.26 1.873,0.223 2.989,1.153 3.473,2.952 0.14,0.523 0.22,1.066 0.279,1.605 0.063,0.583 0.097,1.172 0.097,1.759 0.002,12.082 0.005,24.165 -0.021,36.248 C 5.796,-5.272 5.675,-4.214 5.453,-3.199 5.011,-1.178 3.707,-0.13 1.644,-0.005 1.145,0.026 0.643,0 0,0"
             style="fill:#faf9f9;fill-opacity:1;fill-rule:nonzero;stroke:none"
             id="path62" /></g><g
           id="g64"
           transform="translate(404.3593,121.7706)"><path
             d="M 0,0 C -0.048,-2.594 1.923,-5.587 5.469,-5.544 8.966,-5.502 10.8,-2.681 10.85,-0.023 10.907,3.003 8.374,5.608 5.426,5.613 2.453,5.617 -0.01,3.069 0,0 m 5.428,6.429 c 3.501,-0.002 6.428,-2.88 6.393,-6.391 -0.035,-3.488 -2.6,-6.404 -6.354,-6.42 -4.259,-0.018 -6.51,3.514 -6.458,6.445 0.062,3.523 2.892,6.368 6.419,6.366"
             style="fill:#e6e6e8;fill-opacity:1;fill-rule:nonzero;stroke:none"
             id="path66" /></g><g
           id="g68"
           transform="translate(212.0663,170.8825)"><path
             d="m 0,0 c -0.076,-0.111 -0.12,-0.146 -0.12,-0.181 0.005,-3.606 -0.039,-7.213 0.046,-10.817 0.036,-1.496 0.656,-2.008 2.166,-2.294 0.283,-0.053 0.563,-0.122 0.867,-0.189 v -0.716 H -8.018 c -0.073,0.383 -0.183,0.737 0.392,0.816 0.124,0.017 0.248,0.043 0.371,0.068 1.63,0.34 2.117,0.851 2.322,2.481 0.047,0.373 0.035,0.755 0.035,1.132 0.002,6.38 0.004,12.76 -0.005,19.14 -0.001,0.541 -0.038,1.092 -0.145,1.621 -0.291,1.433 -0.796,1.883 -2.257,2.108 -0.24,0.037 -0.483,0.061 -0.746,0.093 v 0.729 H 2.938 V 13.288 C 0.727,12.979 -0.109,12.738 -0.159,9.777 -0.202,7.259 -0.175,4.74 -0.175,2.222 c 0,-0.205 0.038,-0.41 0.066,-0.687 h 14.87 c 0.052,0.162 0.143,0.316 0.144,0.469 0.005,2.56 0.004,5.121 -0.007,7.681 -0.002,0.376 -0.048,0.754 -0.096,1.129 -0.188,1.477 -0.738,2.064 -2.187,2.336 -0.246,0.046 -0.498,0.058 -0.74,0.085 -0.299,0.661 -0.008,0.832 0.597,0.822 1.931,-0.032 3.861,-0.05 5.792,-0.062 1.466,-0.009 2.931,-10e-4 4.502,-10e-4 0.018,-0.206 0.038,-0.433 0.057,-0.651 C 22.72,13.285 22.651,13.216 22.577,13.209 20.426,13.011 19.904,12.52 19.63,10.384 19.577,9.97 19.577,9.547 19.576,9.128 c -0.001,-6.17 -0.004,-12.34 0.012,-18.51 0.002,-0.667 0.075,-1.342 0.195,-1.998 0.218,-1.189 0.696,-1.631 1.882,-1.862 0.247,-0.048 0.532,-0.039 0.73,-0.165 0.195,-0.123 0.301,-0.385 0.568,-0.756 H 11.779 v 0.704 c 0.393,0.077 0.758,0.174 1.131,0.217 1.076,0.126 1.63,0.795 1.826,1.787 0.113,0.574 0.169,1.167 0.172,1.752 0.016,3.022 0.007,6.044 0.003,9.067 0,0.162 -0.038,0.325 -0.057,0.473 C 13.878,0.121 3.658,0.228 0,0"
             style="fill:#fafbfb;fill-opacity:1;fill-rule:nonzero;stroke:none"
             id="path70" /></g><g
           id="g72"
           transform="translate(285.9521,156.7295)"><path
             d="m 0,0 v 0.635 c 0.348,0.077 0.698,0.155 1.048,0.233 1.326,0.298 1.842,0.844 2.024,2.193 0.061,0.455 0.082,0.92 0.083,1.38 0.005,6.378 0.005,12.756 -10e-4,19.133 0,0.503 -0.019,1.01 -0.087,1.507 -0.194,1.42 -0.838,2.043 -2.276,2.247 -0.243,0.035 -0.49,0.046 -0.748,0.068 -0.036,0.16 -0.085,0.277 -0.082,0.393 0.003,0.118 0.058,0.234 0.1,0.389 h 19.232 c 0.224,-2.13 0.449,-4.275 0.687,-6.541 -0.393,-0.019 -0.782,-0.038 -1.174,-0.058 -0.133,0.483 -0.245,0.882 -0.351,1.282 -0.583,2.196 -2.056,3.452 -4.257,3.697 -2.033,0.225 -4.09,0.23 -6.229,0.337 V 15.186 c 1.861,-0.153 3.698,-0.097 5.517,0.187 1.11,0.174 1.765,0.912 1.922,2.038 0.075,0.533 0.103,1.071 0.159,1.67 h 1.23 V 9.813 C 16.441,9.794 16.081,9.775 15.631,9.75 c -0.063,0.448 -0.122,0.848 -0.176,1.248 -0.215,1.581 -0.939,2.398 -2.492,2.492 -1.627,0.098 -3.264,0.022 -4.987,0.022 C 7.951,13.321 7.887,13.046 7.887,12.771 7.882,10.044 7.886,7.316 7.891,4.589 7.892,4.296 7.885,3.999 7.923,3.709 c 0.178,-1.36 0.8,-2.074 2.168,-2.197 1.964,-0.175 3.932,-0.153 5.872,0.322 2.15,0.528 3.519,1.843 4.11,3.972 0.123,0.443 0.244,0.885 0.402,1.456 0.387,-0.058 0.764,-0.114 1.13,-0.169 C 21.409,4.626 21.223,2.301 21.04,0 Z"
             style="fill:#f4f4f5;fill-opacity:1;fill-rule:nonzero;stroke:none"
             id="path74" /></g><g
           id="g76"
           transform="translate(134.9059,156.6955)"><path
             d="m 0,0 v 0.689 c 0.395,0.083 0.755,0.188 1.122,0.233 1.134,0.138 1.687,0.852 1.864,1.898 0.098,0.577 0.141,1.169 0.141,1.754 0.01,6.922 0.007,13.843 0.004,20.765 0,0.207 -0.031,0.413 -0.062,0.799 -2.001,-0.07 -3.998,0.238 -5.957,-0.327 -1.166,-0.337 -1.935,-1.172 -2.314,-2.303 -0.304,-0.905 -0.492,-1.85 -0.762,-2.896 -0.317,-0.019 -0.716,-0.041 -1.249,-0.072 0.136,2.584 0.267,5.072 0.402,7.627 h 25.254 c 0.065,-2.501 0.128,-4.965 0.195,-7.54 -0.449,-0.023 -0.836,-0.043 -1.25,-0.064 -0.171,0.82 -0.304,1.557 -0.479,2.285 -0.426,1.769 -1.493,2.908 -3.348,3.08 -1.746,0.162 -3.504,0.2 -5.359,0.297 C 8.156,25.783 8.093,25.467 8.093,25.151 8.093,18.355 8.096,11.559 8.114,4.764 8.115,4.138 8.184,3.506 8.284,2.887 8.482,1.652 8.955,1.192 10.211,0.918 10.537,0.847 10.862,0.772 11.226,0.691 11.24,0.485 11.254,0.282 11.273,0 Z"
             style="fill:#fafbfb;fill-opacity:1;fill-rule:nonzero;stroke:none"
             id="path78" /></g><g
           id="g80"
           transform="translate(115.0099,47.9775)"><path
             d="m 0,0 v -11.916 c 1.001,0 1.929,-0.095 2.831,0.017 3.573,0.443 5.276,1.909 4.951,5.945 C 7.776,-5.87 7.778,-5.786 7.77,-5.702 7.498,-2.92 5.817,-0.879 3.142,-0.27 2.147,-0.044 1.091,-0.086 0,0 m 7.467,-12.343 c 1.471,-2.721 2.912,-5.4 4.368,-8.071 0.42,-0.772 0.855,-1.538 1.333,-2.274 0.868,-1.339 2.009,-2.252 3.792,-2.159 0.04,-0.292 0.076,-0.555 0.113,-0.825 -0.175,-0.067 -0.286,-0.139 -0.402,-0.15 -1.547,-0.142 -3.083,-0.235 -4.618,0.174 -1.916,0.511 -3.432,1.552 -4.442,3.248 -0.899,1.509 -1.716,3.067 -2.553,4.612 -0.438,0.809 -0.862,1.628 -1.254,2.46 -0.751,1.592 -1.935,2.371 -3.815,2.041 -0.022,-0.284 -0.068,-0.604 -0.069,-0.925 -0.007,-2.097 -0.003,-4.195 -0.003,-6.293 0,-0.125 -0.002,-0.251 0.001,-0.377 0.053,-2.924 0.447,-3.381 3.365,-3.823 0.027,-0.253 0.056,-0.525 0.094,-0.885 H -7.537 c -0.025,0.192 -0.055,0.417 -0.087,0.659 0.172,0.046 0.286,0.094 0.405,0.105 1.761,0.159 2.256,0.612 2.501,2.365 0.081,0.579 0.121,1.169 0.121,1.754 0.004,5.663 -10e-4,11.327 -0.016,16.99 -10e-4,0.543 -0.051,1.09 -0.13,1.627 -0.221,1.505 -0.773,2.028 -2.268,2.199 -0.161,0.019 -0.324,0.025 -0.577,0.043 0.013,0.267 0.024,0.496 0.034,0.702 0.086,0.038 0.124,0.069 0.163,0.069 4.233,0.068 8.465,0.154 12.698,0.187 1.438,0.01 2.828,-0.343 4.09,-1.05 2.026,-1.136 3.053,-2.903 3.207,-5.214 0.264,-3.983 -1.917,-5.976 -4.58,-6.969 -0.222,-0.083 -0.441,-0.174 -0.557,-0.22"
             style="fill:#f7f7f8;fill-opacity:1;fill-rule:nonzero;stroke:none"
             id="path82" /></g><g
           id="g84"
           transform="translate(50.5378,24.6393)"><path
             d="M 0,0 C 0,2.021 0.049,4.073 -0.018,6.122 -0.059,7.37 -0.518,7.81 -1.711,8.121 -2.033,8.205 -2.357,8.287 -2.722,8.38 V 9.161 H 7.132 C 7.158,8.914 7.183,8.683 7.212,8.411 6.997,8.35 6.845,8.294 6.689,8.265 4.662,7.9 4.433,7.328 4.321,5.342 4.23,3.71 4.301,2.069 4.3,0.432 c 0,-0.25 0,-0.501 0,-0.928 -1.811,-0.549 -3.614,-1.184 -5.462,-1.637 -3.851,-0.943 -7.728,-1.043 -11.532,0.212 -5.841,1.928 -9.355,6.976 -9.224,13.102 0.131,6.176 3.852,10.996 9.873,12.766 3.105,0.913 6.276,1.04 9.458,0.591 1.9,-0.268 3.777,-0.7 5.66,-1.075 0.363,-0.072 0.711,-0.222 1.129,-0.356 V 16.728 H 3.348 c -0.052,0.249 -0.1,0.526 -0.167,0.798 -0.67,2.709 -2.367,4.506 -4.993,5.341 -2.566,0.817 -5.202,0.874 -7.811,0.177 -3.2,-0.856 -5.369,-2.887 -6.306,-6.068 -1.433,-4.861 -0.808,-9.493 2.086,-13.673 C -11.625,0.1 -8.485,-1.555 -4.521,-1.46 -3.03,-1.425 -1.665,-0.975 0,0"
             style="fill:#f5f5f6;fill-opacity:1;fill-rule:nonzero;stroke:none"
             id="path86" /></g><g
           id="g88"
           transform="translate(407.4807,29.2547)"><path
             d="M 0,0 C 0.39,-0.052 0.707,-0.094 1.05,-0.139 0.868,-2.405 0.691,-4.608 0.512,-6.84 h -19.807 v 0.634 c 2.514,0.42 2.955,0.906 2.963,3.481 0.019,6.086 0.006,12.173 0.004,18.259 0,0.126 -0.004,0.252 -0.009,0.378 -0.095,2.263 -0.597,2.801 -2.883,3.008 -0.031,0.243 -0.063,0.504 -0.102,0.809 h 18.193 c 0.211,-2.043 0.421,-4.074 0.638,-6.176 -0.353,-0.022 -0.673,-0.041 -1.065,-0.066 -0.101,0.346 -0.199,0.656 -0.282,0.97 -0.542,2.059 -1.766,3.384 -3.95,3.678 -0.496,0.067 -0.993,0.179 -1.491,0.187 -1.498,0.025 -2.996,0.009 -4.536,0.009 V 7.549 c 1.639,0 3.228,-0.087 4.803,0.026 1.449,0.103 2.03,0.791 2.251,2.246 0.068,0.453 0.127,0.907 0.196,1.402 h 1.084 V 2.492 C -3.762,2.466 -4.118,2.432 -4.527,2.393 -4.621,2.902 -4.717,3.345 -4.784,3.792 -4.953,4.925 -5.58,5.645 -6.719,5.789 -7.712,5.915 -8.718,5.942 -9.72,5.984 c -0.665,0.028 -1.332,0.006 -2.075,0.006 -0.028,-0.381 -0.071,-0.701 -0.072,-1.021 -0.006,-2.435 -0.011,-4.869 0.005,-7.304 0.003,-0.498 0.066,-1.001 0.156,-1.492 0.165,-0.892 0.757,-1.357 1.627,-1.513 2.104,-0.379 4.185,-0.176 6.223,0.364 1.647,0.436 2.759,1.536 3.315,3.161 C -0.351,-1.261 -0.205,-0.693 0,0"
             style="fill:#f3f3f3;fill-opacity:1;fill-rule:nonzero;stroke:none"
             id="path90" /></g><g
           id="g92"
           transform="translate(316.5105,22.4183)"><path
             d="m 0,0 v 0.681 c 0.17,0.028 0.33,0.063 0.491,0.078 1.804,0.16 2.433,0.789 2.571,2.593 0.025,0.334 0.025,0.671 0.025,1.006 10e-4,5.916 0.002,11.832 -0.002,17.747 -10e-4,0.461 -0.013,0.925 -0.068,1.381 -0.185,1.525 -0.829,2.112 -2.37,2.201 -0.166,0.01 -0.333,0.016 -0.585,0.028 -0.027,0.266 -0.054,0.534 -0.085,0.844 h 10.685 c 0.024,-0.219 0.05,-0.45 0.077,-0.693 C 10.6,25.803 10.493,25.718 10.379,25.709 8.221,25.538 7.585,24.909 7.567,22.733 7.535,18.915 7.553,15.097 7.552,11.279 7.551,9.265 7.552,7.252 7.555,5.238 7.556,4.902 7.552,4.565 7.581,4.231 7.744,2.333 8.497,1.436 10.385,1.323 c 1.619,-0.097 3.264,-0.012 4.88,0.16 2.278,0.243 3.686,1.629 4.393,3.769 0.156,0.471 0.312,0.942 0.484,1.462 0.37,-0.07 0.685,-0.13 1.046,-0.198 C 20.993,4.331 20.803,2.205 20.607,0 Z"
             style="fill:#f4f4f5;fill-opacity:1;fill-rule:nonzero;stroke:none"
             id="path94" /></g><g
           id="g96"
           transform="translate(264.9347,29.1007)"><path
             d="M 0,0 C 0.37,-0.059 0.65,-0.104 1.034,-0.166 0.842,-2.363 0.655,-4.517 0.459,-6.757 c -0.347,0 -0.59,0 -0.833,0 -6.209,-0.001 -12.418,-0.002 -18.627,-0.003 -0.294,0 -0.614,-0.066 -0.872,0.032 -0.183,0.069 -0.283,0.361 -0.414,0.547 0.206,0.134 0.269,0.209 0.338,0.215 2.184,0.187 2.668,0.648 2.917,2.814 0.038,0.333 0.042,0.67 0.042,1.005 0.003,5.748 0.006,11.496 -0.004,17.244 -0.001,0.585 -0.093,1.168 -0.136,1.753 -0.099,1.34 -1.011,2.254 -2.42,2.154 -0.164,-0.012 -0.331,0.016 -0.529,0.027 -0.046,0.11 -0.122,0.214 -0.126,0.321 -0.006,0.155 0.039,0.312 0.066,0.496 h 10.672 c 0.018,-0.239 0.036,-0.473 0.058,-0.76 -0.269,-0.032 -0.511,-0.073 -0.755,-0.088 -1.458,-0.093 -2.047,-0.579 -2.299,-1.987 -0.103,-0.574 -0.163,-1.164 -0.164,-1.747 -0.012,-5.413 -0.015,-10.825 0.002,-16.238 0.003,-0.75 0.096,-1.506 0.208,-2.25 0.159,-1.052 0.747,-1.782 1.823,-1.978 2.376,-0.434 4.753,-0.477 7.066,0.319 1.436,0.494 2.327,1.601 2.886,2.975 C -0.406,-1.326 -0.239,-0.718 0,0"
             style="fill:#faf9f9;fill-opacity:1;fill-rule:nonzero;stroke:none"
             id="path98" /></g><g
           id="g100"
           transform="translate(182.241,48.1634)"><path
             d="M 0,0 C 0.012,0.274 0.022,0.48 0.033,0.734 H 5.175 10.38 C 10.391,0.486 10.402,0.256 10.412,0.032 8.023,-0.25 7.606,-0.68 7.431,-3.043 7.385,-3.669 7.4,-4.3 7.4,-4.93 7.398,-10.175 7.395,-15.421 7.404,-20.666 c 0.001,-0.712 0.029,-1.429 0.112,-2.135 0.174,-1.481 0.754,-2.022 2.263,-2.193 0.165,-0.019 0.332,-0.029 0.563,-0.048 0.023,-0.231 0.045,-0.454 0.072,-0.735 H 0.071 c -0.013,0.228 -0.025,0.448 -0.037,0.661 2.445,0.379 2.963,0.955 2.969,3.384 0.013,6.127 0.004,12.254 0.003,18.381 0,0.084 0.007,0.168 -10e-4,0.251 C 2.819,-1.313 2.752,-0.107 0,0"
             style="fill:#fbfbfb;fill-opacity:1;fill-rule:nonzero;stroke:none"
             id="path102" /></g><g
           id="g104"
           transform="translate(152.1102,32.9612)"><path
             d="M 0,0 C -2.155,0.013 -3.846,1.681 -3.863,3.812 -3.881,5.97 -2.128,7.77 0.012,7.792 2.138,7.814 3.931,6.019 3.937,3.863 3.943,1.676 2.222,-0.013 0,0"
             style="fill:#8a8432;fill-opacity:1;fill-rule:nonzero;stroke:none"
             id="path106" /></g><g
           id="g108"
           transform="translate(291.9834,32.9617)"><path
             d="M 0,0 C -2.221,-0.01 -3.923,1.666 -3.93,3.872 -3.937,6.01 -2.12,7.821 0.002,7.791 2.152,7.762 3.886,5.972 3.866,3.805 3.846,1.67 2.159,0.01 0,0"
             style="fill:#8a8432;fill-opacity:1;fill-rule:nonzero;stroke:none"
             id="path110" /></g><g
           id="g112"
           transform="translate(361.8687,32.9618)"><path
             d="M 0,0 C -2.243,-0.004 -3.8,1.631 -3.867,3.892 -3.926,5.9 -2.284,7.69 -0.078,7.784 2.09,7.876 3.931,5.988 3.894,3.786 3.858,1.682 2.132,0.004 0,0"
             style="fill:#8a8432;fill-opacity:1;fill-rule:nonzero;stroke:none"
             id="path114" /></g><g
           id="g116"
           transform="translate(218.2146,36.7803)"><path
             d="M 0,0 C -0.151,2.284 1.792,3.921 3.822,3.966 5.94,4.014 7.72,2.199 7.742,0.039 7.762,-2.047 6.034,-3.793 3.923,-3.818 1.664,-3.846 0.015,-2.24 0,0"
             style="fill:#8a8432;fill-opacity:1;fill-rule:nonzero;stroke:none"
             id="path118" /></g><g
           id="g120"
           transform="translate(78.4086,36.8033)"><path
             d="M 0,0 C -0.123,2.153 1.609,3.927 3.839,3.929 6.014,3.932 7.749,2.207 7.687,-0.004 7.626,-2.192 6.064,-3.823 3.898,-3.842 1.648,-3.861 0.009,-2.246 0,0"
             style="fill:#8b8432;fill-opacity:1;fill-rule:nonzero;stroke:none"
             id="path122" /></g><g
           id="g124"
           transform="translate(171.1613,125.0164)"><path
             d="m 0,0 c 3.145,0.315 6.063,-0.056 8.776,-1.47 3.589,-1.87 5.426,-4.991 6.063,-8.891 0.384,-2.348 0.334,-4.681 -0.458,-6.957 -1.294,-3.717 -4.018,-5.656 -7.823,-6.165 C 4.603,-23.745 1.9,-23.477 0,-22.96 Z"
             style="fill:#040303;fill-opacity:1;fill-rule:nonzero;stroke:none"
             id="path126" /></g><g
           id="g128"
           transform="translate(114.2735,114.5888)"><path
             d="M 0,0 C 2.711,-6.521 5.301,-12.75 7.938,-19.093 H -6.754 C -4.513,-12.756 -2.305,-6.515 0,0"
             style="fill:#080706;fill-opacity:1;fill-rule:nonzero;stroke:none"
             id="path130" /></g><g
           id="g132"
           transform="translate(323.6522,114.2934)"><path
             d="M 0,0 C 2.594,-6.238 5.187,-12.476 7.821,-18.808 H -6.913 c 2.232,6.312 4.444,12.567 6.656,18.822 C -0.171,0.009 -0.086,0.005 0,0"
             style="fill:#080706;fill-opacity:1;fill-rule:nonzero;stroke:none"
             id="path134" /></g><g
           id="g136"
           transform="translate(409.2149,121.3693)"><path
             d="M 0,0 C 0.203,0.022 0.407,0.045 0.61,0.067 1.142,-0.675 1.701,-1.4 2.197,-2.165 2.617,-2.814 3.125,-3.01 3.828,-2.758 3.447,-2.247 3.087,-1.798 2.765,-1.323 2.418,-0.812 2.107,-0.278 1.761,0.276 1.952,0.419 2.088,0.507 2.207,0.613 2.976,1.295 3.247,2.1 2.961,2.831 2.688,3.527 1.883,3.902 0.851,3.821 0.477,3.791 0.102,3.775 -0.273,3.752 c -0.55,0.033 -1.1,0.067 -1.65,0.1 0.618,-0.244 0.633,-0.702 0.63,-1.195 -0.01,-1.425 0.018,-2.851 -0.017,-4.275 -0.01,-0.387 -0.191,-0.77 -0.291,-1.148 h 1.777 c -0.799,0.811 -0.392,1.707 -0.418,2.541 z M -4.856,0.401 C -4.866,3.47 -2.402,6.018 0.571,6.014 3.519,6.01 6.052,3.404 5.994,0.378 5.944,-2.28 4.11,-5.101 0.613,-5.143 c -3.545,-0.042 -5.517,2.95 -5.469,5.544"
             style="fill:#181818;fill-opacity:1;fill-rule:nonzero;stroke:none"
             id="path138" /></g><g
           id="g140"
           transform="translate(115.0099,47.9775)"><path
             d="M 0,0 C 1.091,-0.086 2.147,-0.044 3.142,-0.27 5.817,-0.879 7.498,-2.92 7.77,-5.702 7.778,-5.786 7.776,-5.87 7.782,-5.954 8.107,-9.99 6.404,-11.456 2.831,-11.899 1.929,-12.011 1.001,-11.916 0,-11.916 Z"
             style="fill:#070606;fill-opacity:1;fill-rule:nonzero;stroke:none"
             id="path142" /></g><g
           id="g144"
           transform="translate(408.9418,125.1214)"><path
             d="M 0,0 C 0.375,0.023 0.75,0.039 1.124,0.069 2.157,0.15 2.961,-0.225 3.234,-0.921 3.52,-1.652 3.249,-2.457 2.48,-3.139 2.361,-3.245 2.225,-3.333 2.035,-3.476 2.38,-4.03 2.691,-4.565 3.038,-5.075 3.36,-5.55 3.72,-5.999 4.101,-6.51 3.398,-6.762 2.891,-6.566 2.47,-5.917 c -0.496,0.765 -1.055,1.49 -1.587,2.232 0.131,0.139 0.237,0.32 0.396,0.41 0.878,0.496 1.203,1.199 0.963,2.149 C 2.07,-0.443 1.595,-0.137 0.611,-0.102 0.409,-0.095 0.203,-0.151 -0.001,-0.177 -0.021,-0.118 -0.021,-0.059 0,0"
             style="fill:#dfdedf;fill-opacity:1;fill-rule:nonzero;stroke:none"
             id="path146" /></g><g
           id="g148"
           transform="translate(408.9418,125.1214)"><path
             d="M 0,0 C -0.021,-0.059 -0.021,-0.118 -0.001,-0.177 0.01,-1.261 0.02,-2.344 0.03,-3.427 0.018,-3.513 0.005,-3.598 -0.008,-3.683 0.005,-3.781 0.018,-3.879 0.031,-3.977 0.057,-4.811 -0.35,-5.707 0.449,-6.518 h -1.777 c 0.101,0.378 0.281,0.761 0.291,1.148 0.035,1.424 0.007,2.85 0.017,4.275 0.004,0.493 -0.011,0.951 -0.63,1.195 C -1.1,0.067 -0.55,0.033 0,0"
             style="fill:#f7f7f8;fill-opacity:1;fill-rule:nonzero;stroke:none"
             id="path150" /></g><g
           id="g152"
           transform="translate(408.9722,121.6941)"><path
             d="M 0,0 C -0.01,1.083 -0.021,2.167 -0.031,3.25 0.173,3.277 0.378,3.332 0.581,3.325 1.565,3.29 2.04,2.985 2.212,2.301 2.452,1.351 2.127,0.648 1.248,0.152 1.09,0.063 0.983,-0.119 0.853,-0.258 0.649,-0.28 0.446,-0.303 0.243,-0.325 c 0,0 -0.076,0.083 -0.076,0.083 C 0.111,-0.161 0.056,-0.081 0,0"
             style="fill:#222121;fill-opacity:1;fill-rule:nonzero;stroke:none"
             id="path154" /></g><g
           id="g156"
           transform="translate(408.9729,121.1445)"><path
             d="m 0,0 c -0.013,0.098 -0.026,0.196 -0.039,0.293 0,0 0.102,0.027 0.102,0.027 L 0.166,0.308 c 0,0 0.076,-0.083 0.076,-0.083 C 0.161,0.15 0.081,0.075 0,0"
             style="fill:#222121;fill-opacity:1;fill-rule:nonzero;stroke:none"
             id="path158" /></g><g
           id="g160"
           transform="translate(409.1393,121.4521)"><path
             d="m 0,0 -0.104,0.012 c 0,0 -0.101,-0.026 -0.101,-0.026 0.013,0.085 0.025,0.171 0.038,0.256 C -0.111,0.161 -0.056,0.081 0,0"
             style="fill:#dfdedf;fill-opacity:1;fill-rule:nonzero;stroke:none"
             id="path162" /></g></g></g></g></svg>
